<svg width="30" height="24" viewBox="0 0 30 24" fill="none" xmlns="http://www.w3.org/2000/svg">
<path d="M1 23C1 23 5.03726 17.9286 14.9991 17.9286C24.9609 17.9286 29 23 29 23H1ZM14.9991 11.6917C16.4402 11.6917 17.8223 11.1285 18.8413 10.126C19.8603 9.12341 20.4328 7.76367 20.4328 6.34586C20.4328 4.92805 19.8603 3.56831 18.8413 2.56577C17.8223 1.56322 16.4402 1 14.9991 1C13.558 1 12.1759 1.56322 11.1569 2.56577C10.1378 3.56831 9.56537 4.92805 9.56537 6.34586C9.56537 7.76367 10.1378 9.12341 11.1569 10.126C12.1759 11.1285 13.558 11.6917 14.9991 11.6917V11.6917Z" stroke="black" stroke-width="2" stroke-linecap="round" stroke-linejoin="round"/>
</svg>
